<svg width="50" height="50" viewBox="0 0 50 50" fill="none" xmlns="http://www.w3.org/2000/svg">
<g id="Frame" clip-path="url(#clip0_29_1294)">
<path id="Vector" d="M32.1146 11.2077C30.5232 11.2074 28.9954 11.8345 27.8598 12.954C26.7242 14.0734 26.0716 15.5958 26.0425 17.1935L25.9839 20.5049C25.9805 20.6827 25.9396 20.8578 25.8641 21.0186C25.7885 21.1795 25.68 21.3225 25.5455 21.4382C25.4111 21.5539 25.2538 21.6398 25.084 21.6903C24.9141 21.7407 24.7356 21.7544 24.5601 21.7307L21.2916 21.285C16.9909 20.6963 12.8703 18.7073 8.91714 15.4001C7.66504 22.3594 10.1106 27.1804 16.0005 30.8997L19.6585 33.2082C19.8323 33.3179 19.9766 33.4687 20.079 33.6474C20.1813 33.826 20.2385 34.0272 20.2456 34.2332C20.2526 34.4392 20.2092 34.6438 20.1193 34.829C20.0294 35.0143 19.8956 35.1747 19.7296 35.296L16.3963 37.7412C18.3791 37.8653 20.2615 37.777 21.8235 37.4658C31.7021 35.4852 38.2705 28.0214 38.2705 15.7091C38.2705 14.7042 36.1515 11.2077 32.1146 11.2077ZM21.8549 17.1157C21.8914 15.089 22.5226 13.1182 23.6693 11.45C24.816 9.78173 26.4274 8.49026 28.3016 7.73725C30.1758 6.98423 32.2296 6.80313 34.2058 7.21663C36.182 7.63012 37.9929 8.61983 39.4116 10.0618C40.9003 10.0513 42.1671 10.4298 45 8.70573C44.2986 12.1538 43.9531 13.6508 42.4581 15.7091C42.4581 31.7764 32.6234 39.5893 22.6442 41.5888C15.8016 42.9596 5.85179 40.7079 3 37.7181C4.45311 37.6046 10.3577 36.9675 13.7706 34.4592C10.8832 32.5481 -0.609751 25.757 6.94267 7.49889C10.4875 11.6555 14.0826 14.4855 17.7259 15.9867C20.1505 16.9854 20.7452 16.9643 21.857 17.1178L21.8549 17.1157Z" fill="white"/>
</g>
<defs>
<clipPath id="clip0_29_1294">
<rect width="50" height="50" fill="white"/>
</clipPath>
</defs>
</svg>
