<svg width="25" height="25" viewBox="0 0 25 25" fill="none" xmlns="http://www.w3.org/2000/svg">
<g id="Frame" opacity="0.5" clip-path="url(#clip0_29_1346)">
<path id="Vector" d="M17.7085 3.12502H21.8752C22.1514 3.12502 22.4164 3.23477 22.6117 3.43012C22.8071 3.62547 22.9168 3.89042 22.9168 4.16669V20.8334C22.9168 21.1096 22.8071 21.3746 22.6117 21.5699C22.4164 21.7653 22.1514 21.875 21.8752 21.875H3.12516C2.8489 21.875 2.58394 21.7653 2.38859 21.5699C2.19324 21.3746 2.0835 21.1096 2.0835 20.8334V4.16669C2.0835 3.89042 2.19324 3.62547 2.38859 3.43012C2.58394 3.23477 2.8489 3.12502 3.12516 3.12502H7.29183V1.04169H9.37516V3.12502H15.6252V1.04169H17.7085V3.12502ZM20.8335 9.37502V5.20835H17.7085V7.29169H15.6252V5.20835H9.37516V7.29169H7.29183V5.20835H4.16683V9.37502H20.8335ZM20.8335 11.4584H4.16683V19.7917H20.8335V11.4584ZM6.25016 13.5417H11.4585V17.7084H6.25016V13.5417Z" fill="#473423"/>
</g>
<defs>
<clipPath id="clip0_29_1346">
<rect width="25" height="25" fill="white"/>
</clipPath>
</defs>
</svg>
