<svg xmlns="http://www.w3.org/2000/svg" width="25" height="25" viewBox="0 0 25 25" fill="none">
<g opacity="0.5" clip-path="url(#clip0_19_127)">
<path d="M17.7084 3.12508H21.875C22.1513 3.12508 22.4163 3.23483 22.6116 3.43018C22.807 3.62553 22.9167 3.89048 22.9167 4.16675V20.8334C22.9167 21.1097 22.807 21.3746 22.6116 21.57C22.4163 21.7653 22.1513 21.8751 21.875 21.8751H3.12504C2.84877 21.8751 2.58382 21.7653 2.38847 21.57C2.19312 21.3746 2.08337 21.1097 2.08337 20.8334V4.16675C2.08337 3.89048 2.19312 3.62553 2.38847 3.43018C2.58382 3.23483 2.84877 3.12508 3.12504 3.12508H7.29171V1.04175H9.37504V3.12508H15.625V1.04175H17.7084V3.12508ZM20.8334 9.37508V5.20842H17.7084V7.29175H15.625V5.20842H9.37504V7.29175H7.29171V5.20842H4.16671V9.37508H20.8334ZM20.8334 11.4584H4.16671V19.7917H20.8334V11.4584ZM6.25004 13.5417H11.4584V17.7084H6.25004V13.5417Z" fill="#B5AEA4"/>
</g>
<defs>
<clipPath id="clip0_19_127">
<rect width="25" height="25" fill="white"/>
</clipPath>
</defs>
</svg>
