<svg xmlns="http://www.w3.org/2000/svg" width="25" height="25" viewBox="0 0 25 25" fill="none">
  <g opacity="0.5" clip-path="url(#clip0_19_133)">
    <path d="M4.16663 22.9167C4.16663 20.7066 5.0446 18.587 6.6074 17.0242C8.17021 15.4614 10.2898 14.5834 12.5 14.5834C14.7101 14.5834 16.8297 15.4614 18.3925 17.0242C19.9553 18.587 20.8333 20.7066 20.8333 22.9167H18.75C18.75 21.2591 18.0915 19.6694 16.9194 18.4973C15.7473 17.3252 14.1576 16.6667 12.5 16.6667C10.8424 16.6667 9.25264 17.3252 8.08054 18.4973C6.90844 19.6694 6.24996 21.2591 6.24996 22.9167H4.16663ZM12.5 13.5417C9.04683 13.5417 6.24996 10.7449 6.24996 7.29175C6.24996 3.83862 9.04683 1.04175 12.5 1.04175C15.9531 1.04175 18.75 3.83862 18.75 7.29175C18.75 10.7449 15.9531 13.5417 12.5 13.5417ZM12.5 11.4584C14.802 11.4584 16.6666 9.59383 16.6666 7.29175C16.6666 4.98967 14.802 3.12508 12.5 3.12508C10.1979 3.12508 8.33329 4.98967 8.33329 7.29175C8.33329 9.59383 10.1979 11.4584 12.5 11.4584Z" fill="#B5AEA4"/>
  </g>
  <defs>
    <clipPath id="clip0_19_133">
      <rect width="25" height="25" fill="white"/>
    </clipPath>
  </defs>
</svg>